{"asset":{"generator":"3D Builder","version":"2.0"},"scene":0,"scenes":[{"nodes":[0]}],"nodes":[{"mesh":0,"matrix":[0.10000000894069672,0,0,0,0,-1.1920930909070648E-8,-0.10000000149011612,0,0,0.10000000894069672,-1.1920931797249068E-8,0,-0.013459519483149052,1.0469425916671753,-0.013339736498892307,1]}],"meshes":[{"primitives":[{"attributes":{"POSITION":0,"TEXCOORD_0":1},"mode":4,"indices":2,"material":0}]}],"materials":[{"pbrMetallicRoughness":{"baseColorFactor":[1,1,1,1],"metallicFactor":1,"roughnessFactor":1,"baseColorTexture":{"index":0,"texCoord":0},"metallicRoughnessTexture":{"index":1,"texCoord":0}},"alphaMode":"OPAQUE"}],"textures":[{"source":0,"sampler":0},{"source":1,"sampler":0}],"images":[{"uri":"snazy_jogger_baseColor.png"},{"uri":"snazy_jogger_metallicRoughness_10852638490067281019.png"}],"samplers":[{"magFilter":9729,"wrapS":10497,"wrapT":10497}],"accessors":[{"bufferView":0,"byteOffset":0,"count":7495,"componentType":5126,"type":"VEC3","min":[-0.33142963051795959,-0.48485010862350464,0.047609180212020874],"max":[0.30151957273483276,0.51449370384216309,1.812617301940918]},{"bufferView":1,"byteOffset":0,"count":7495,"componentType":5126,"type":"VEC2"},{"bufferView":2,"byteOffset":0,"count":37461,"componentType":5125,"type":"SCALAR"}],"bufferViews":[{"buffer":0,"byteOffset":0,"byteLength":89940,"byteStride":12,"target":34962},{"buffer":0,"byteOffset":89940,"byteLength":59960,"byteStride":8,"target":34962},{"buffer":0,"byteOffset":149900,"byteLength":149844,"target":34963}],"buffers":[{"byteLength":299744,"uri":"scene.bin"}]}